<svg xmlns="http://www.w3.org/2000/svg" version="1.1" xmlns:xlink="http://www.w3.org/1999/xlink" xmlns:svgjs="http://svgjs.dev/svgjs" viewBox="0 0 800 800" opacity="0.87"><defs><linearGradient x1="50%" y1="0%" x2="50%" y2="100%" id="uundulate-grad"><stop stop-color="hsl(241, 66%, 26%)" stop-opacity="1" offset="45%"></stop><stop stop-color="hsl(241, 37%, 13%)" stop-opacity="1" offset="100%"></stop></linearGradient></defs><g stroke-width="3" stroke="url(#uundulate-grad)" fill="none"><path d="M595.6164537400723 423.5107374572989C609.8314827938004 505.67403839468716 559.2053317704556 579.3748247271776 477.4131303784816 595.5893510348103C395.6209289865076 611.8038773424431 217.22891611232495 583.5037646713248 203.01388705859682 501.34046373393653C188.7988580048687 419.1771627965484 327.3887895286131 217.4200328429796 409.1809909205871 201.20550653534684C490.9731923125611 184.99098022771403 581.4014246863442 341.34743651991073 595.6164537400723 423.5107374572989C609.8314827938004 505.67403839468716 559.2053317704556 579.3748247271776 477.4131303784816 595.5893510348103 "></path><path d="M584.7488738244454 422.2046048736795C598.1741790418553 499.8032779812128 550.3605919642519 569.4095761841204 473.112401760721 584.7232954746623C395.86421155718995 600.0370147652045 227.3828660649063 573.3091305758151 213.95756084749638 495.7104574682817C200.53225563008652 418.1117843607484 331.4227465136229 227.56338384904456 408.67093671715384 212.24966455850245C485.9191269206849 196.9359452679604 571.3235686070356 344.60593176614617 584.7488738244454 422.2046048736795C598.1741790418553 499.8032779812128 550.3605919642519 569.4095761841204 473.112401760721 584.7232954746623 "></path><path d="M573.8812939088186 420.89845703127094C586.5168752899102 493.9325023089493 541.5158521580482 559.4443123822741 468.8116731429602 573.8572246557255C396.1074941278723 588.2701369291769 237.53681601748764 563.1144812215161 224.90123463639594 490.08043594383776C212.2656532553043 417.04639066615937 335.4567034986327 237.7067195963204 408.1608825137207 223.29380732286904C480.8650615288086 208.8808950494177 561.2457125277269 347.86441175359255 573.8812939088186 420.89845703127094C586.5168752899102 493.9325023089493 541.5158521580482 559.4443123822741 468.8116731429602 573.8572246557255 "></path><path d="M563.0137445107698 419.5922939300733C574.8596020555433 488.0617113778968 532.6711428694226 549.4790333216388 464.51097504277766 562.9911385779994C396.3508072161327 576.5032438343601 247.6907964876471 552.9198166084282 235.84493894287363 484.4503991606048C223.9990813981002 415.98098171278116 339.49069100122057 247.85004008480723 407.6508588278655 234.33793482844658C475.81102665451056 220.82582957208592 551.1678869659964 351.1228764822498 563.0137445107698 419.5922939300733C574.8596020555433 488.0617113778968 532.6711428694226 549.4790333216388 464.51097504277766 562.9911385779994 "></path><path d="M552.1461188187759 418.28614608766475C563.202252527231 482.19093570563336 523.8263572868518 539.5137695197925 460.2102006486498 552.1250677590625C396.59404401044776 564.7363659983325 257.84470066386126 542.7251672541294 246.78856695540605 478.82037763616074C235.73243324695085 414.9155880181921 343.52460220986313 257.9933758320831 407.14075884806516 245.38207759281318C470.7569154862671 232.77077935354322 541.0899851103206 354.3813564696962 552.1461188187759 418.28614608766475C563.202252527231 482.19093570563336 523.8263572868518 539.5137695197925 460.2102006486498 552.1250677590625 "></path><path d="M541.278538903149 416.97998298646723C551.544948775286 476.32014477458097 514.9816174806481 529.5484904591573 455.9094720308891 541.2589816813365C396.8373265811301 552.9694729035157 267.99865061644255 532.5305026410415 257.7322407443056 473.19034085292776C247.46583087216862 413.85017906481403 347.55855919487294 268.1366963205699 406.6307046446319 256.42620509839065C465.7028500943909 244.71571387621145 531.0121290310119 357.6398211983535 541.278538903149 416.97998298646723C551.544948775286 476.32014477458097 514.9816174806481 529.5484904591573 455.9094720308891 541.2589816813365 "></path><path d="M530.4109895051002 415.6738198852696C539.887675540919 470.44935384352846 506.1369081920225 519.583211398522 451.60877393070655 530.3928956036106C397.0806396693905 541.202579808699 278.152631086602 522.3358380279535 268.6759450507833 467.56030406969467C259.1992590149646 412.78477011143593 351.5925466974608 278.2800168090567 406.1206809587768 267.4703326039682C460.64881522009284 256.6606483988797 520.9343034692815 360.8982859270108 530.4109895051002 415.6738198852696C539.887675540919 470.44935384352846 506.1369081920225 519.583211398522 451.60877393070655 530.3928956036106 "></path><path d="M519.5433790718953 414.3676873016501C528.2303412713958 464.57859343005407 497.2921378682406 509.61796285546484 447.3080147953677 519.5268400434627C397.3238917224947 529.4357172314604 288.30655052160523 512.1412039324437 279.61958832210473 461.9302978040398C270.93262612260423 411.7193916756359 355.62647316489245 288.42336781512165 405.61059623776544 278.51449062712385C455.5947193106384 268.60561343912605 510.8564168723948 364.15678117324626 519.5433790718953 414.3676873016501C528.2303412713958 464.57859343005407 497.2921378682406 509.61796285546484 447.3080147953677 519.5268400434627 "></path><path d="M508.6758296738466 413.06155471803066C516.5730680370289 458.7078330165797 488.4474285796151 499.6527143124076 443.00731669518507 508.6607844833147C397.56720481075513 517.6688546542218 298.4605309917647 501.9465698369339 290.5632926285824 456.30029153838495C282.66605426540013 410.65401323983593 359.6604606674804 298.56671882118656 405.1005725519104 289.5586486502795C450.54068443634037 280.5505784793724 500.7785913106643 367.41527641948164 508.6758296738466 413.06155471803066C516.5730680370289 458.7078330165797 488.4474285796151 499.6527143124076 443.00731669518507 508.6607844833147 "></path><path d="M497.80824975821974 411.75539161683304C504.9157642850838 452.8370420855272 479.6026887734114 489.6874352517724 438.7065880774244 497.79469840558875C397.8104873814374 505.9019615594052 308.61448094434604 491.75190522384605 301.506966417482 450.67025475515186C294.39945189061797 409.5886042864578 363.69441765249013 308.7100393096734 404.59051834847713 300.602776155857C445.48661904446413 292.49551300204064 490.7007352313557 370.67374114813896 497.80824975821974 411.75539161683304C504.9157642850838 452.8370420855272 479.6026887734114 489.6874352517724 438.7065880774244 497.79469840558875 "></path><path d="M486.94065458380385 410.4492132568464C493.2584452743497 446.9662358956856 470.75793370841865 479.722140932348 434.40584420087464 486.9285970690737C398.0537546933307 494.1350532057994 318.7684156381383 481.557225351969 312.45062494759253 445.0402027131298C306.1328342570467 408.5231800742906 367.7283593787109 318.85334453937116 404.0804488862549 311.64688840264546C440.43253839379884 304.4404322659198 480.622863893258 373.9321906180072 486.94065458380385 410.4492132568464C493.2584452743497 446.9662358956856 470.75793370841865 479.722140932348 434.40584420087464 486.9285970690737 "></path><path d="M476.07305940938795 409.14306541443784C481.6011262636155 441.09546022342215 461.9131786434259 469.7568771305017 430.1051003243249 476.0625262501367C398.2970220052239 482.36817536977173 328.9223503319306 471.36257599767015 323.394283477703 439.41018118868584C317.8662166234754 407.45778637970153 371.76230110493157 328.996680286647 403.5703794240326 322.69103116701206C435.37845774313354 316.3853820473771 470.5449925551603 377.1906706054536 476.07305940938795 409.14306541443784C481.6011262636155 441.09546022342215 461.9131786434259 469.7568771305017 430.1051003243249 476.0625262501367 "></path><path d="M465.2054947525501 407.83691757202934C469.9438377704595 435.22468455115876 453.06845409601124 459.79161332865556 425.8043869653533 465.1964554311998C398.54031983469525 470.60129753374406 339.076315543301 461.1679266433713 334.33797252539165 433.78015966424186C329.5996295074823 406.3923926851125 375.79627334873044 339.1400160339229 403.0603404793884 333.73517393137865C430.3244076100464 328.33033182883435 460.46715173464077 380.44915059289997 465.2054947525501 407.83691757202934C469.9438377704595 435.22468455115876 453.06845409601124 459.79161332865556 425.8043869653533 465.1964554311998 "></path><path d="M454.3379148369233 406.53076972962083C458.28653401851443 429.3539088788953 444.22371428980756 449.8263495268093 421.50365834759253 454.33038461226283C398.78360240537756 458.8344196977164 349.23026549588235 450.9732772890724 345.2816463142912 428.15013813979795C341.33302713270007 405.3269989905234 379.8302303337402 349.28335178119875 402.55028627595516 344.7793166957452C425.2703422181702 340.27528161029164 450.38929565533215 383.7076305803463 454.3379148369233 406.53076972962083C458.28653401851443 429.3539088788953 444.22371428980756 449.8263495268093 421.50365834759253 454.33038461226283 "></path><path d="M443.4703196625074 405.22462188721227C446.6292150077803 423.48313320663186 435.3789592248148 439.86108572496306 417.2029144710428 443.4643137933259C399.0268697172708 447.06754186168877 359.38420018967463 440.77862793477357 356.2253048444017 422.52011661535397C353.0664094991288 404.2616052959344 383.8641720599609 359.42668752847464 402.0402168137329 355.8234594601118C420.2162615675049 352.22023139174894 440.31142431723447 386.96611056779267 443.4703196625074 405.22462188721227C446.6292150077803 423.48313320663186 435.3789592248148 439.86108572496306 417.2029144710428 443.4643137933259 "></path><path d="M432.6027397468805 403.91845878601464C434.9719112558352 417.61234227557935 426.5342194186111 429.8958066643278 412.9021858532821 432.59822771559993C399.2701522879531 435.30064876687203 369.538150142256 430.58396332168564 367.16897863330126 416.89007983212093C364.7998071243466 403.1961963425563 387.8981290449707 369.5700080169614 401.53016261029967 366.8675869656893C415.16219617562865 364.1651659144172 430.23356823792585 390.22457529645 432.6027397468805 403.91845878601464C434.9719112558352 417.61234227557935 426.5342194186111 429.8958066643278 412.9021858532821 432.59822771559993 "></path><path d="M421.73517509004273 402.61229568481707C423.3146227626792 411.7415513445269 417.6894948711965 419.9305276036925 408.6014724943105 421.7321416378739C399.51345011742444 423.5337556720553 379.6921153536264 420.3892987085977 378.11266768098994 411.26004304888795C376.53322000835345 402.1307873891781 391.9321012887695 379.71332850544826 401.0201236656555 377.91171447126686C410.10814604254153 376.1101004370854 420.1557274174063 393.48304002510724 421.73517509004273 402.61229568481707C423.3146227626792 411.7415513445269 417.6894948711965 419.9305276036925 408.6014724943105 421.7321416378739 "></path><path d="M410.86757991562683 401.30614784240856C411.65730375194505 405.87077567226345 408.8447398062037 409.9652638018462 404.3007286177607 410.8660708189369C399.7567174293177 411.7668778360277 389.84605004741866 410.19464935429886 389.05632621110044 405.630021524444C388.2666023747822 401.06539369458903 395.96604301499025 389.8566642527241 400.51005420343324 388.9558572356334C405.05406539187624 388.0550502185427 410.0778560793086 396.7415200125536 410.86757991562683 401.30614784240856C411.65730375194505 405.87077567226345 408.8447398062037 409.9652638018462 404.3007286177607 410.8660708189369 "></path></g></svg>